<svg xmlns="http://www.w3.org/2000/svg" viewBox="0 0 1305.55 663.54"><defs><style>.cls-1{fill:#f9d1ba;}.cls-1,.cls-2{stroke:#79b2b6;}.cls-1,.cls-2,.cls-4,.cls-5{stroke-linecap:round;stroke-linejoin:round;stroke-width:16px;}.cls-2,.cls-5{fill:none;}.cls-3{fill:#79b2b6;}.cls-4{fill:#dde396;}.cls-4,.cls-5{stroke:#c2cd23;}</style></defs><g id="Layer_2" data-name="Layer 2"><g id="Layer_1-2" data-name="Layer 1"><path class="cls-1" d="M923.29,258.92a228.39,228.39,0,0,1-14,79.11c-36.19,99.71-139.19,171.66-260.64,171.66-120.45,0-222.88-70.81-259.79-169.37A227.61,227.61,0,0,1,374,258.92a223.17,223.17,0,0,1,1.44-26C389.7,106.56,506.58,8,648.63,8c142.48,0,259.5,99,273.23,225.74A210.88,210.88,0,0,1,923.29,258.92Z"/><path class="cls-1" d="M991.39,287.53c0,30-26.75,54.5-59.8,54.5a63.82,63.82,0,0,1-22.32-4,228.39,228.39,0,0,0,14-79.11,210.88,210.88,0,0,0-1.43-25.18,54.93,54.93,0,0,1,9.73-.86C964.64,232.88,991.39,257.34,991.39,287.53Z"/><path class="cls-1" d="M388.84,340.32A63.49,63.49,0,0,1,374,342c-33,0-59.79-24.46-59.79-54.5s26.75-54.65,59.79-54.65h1.44a223.17,223.17,0,0,0-1.44,26A227.61,227.61,0,0,0,388.84,340.32Z"/><path class="cls-2" d="M830.74,247.19a47.11,47.11,0,0,1-84.69,0"/><path class="cls-2" d="M555.07,247.19a47.11,47.11,0,0,1-84.69,0"/><path class="cls-2" d="M729,326.58c-10.59,24-42.63,41.49-80.4,41.49s-69.81-17.45-80.4-41.49"/><path class="cls-3" d="M648.63,5.66c1,3.18,2.35,7,3,10.27,1.21,6.47-1.42,12.94-3.77,18.84l-1.17,2.54c-3.12,6.77-8.5,12.76-14.23,17.39-4.81,3.94-9.33,7.26-13.57,11.56-18.45,19.74-28.72,56.64-9,78.46,11.59,13.23,31.2,21.72,48.52,16.36,10.92-3.7,22.15-12.38,25.91-23.42,2.9-8.69-.3-18.33-6.47-25-6.78-7.57-16.7-11.79-26.79-12.87,14.79-2.13,30.41,4,38.88,16.84,14.82,23-4.47,48.91-26.78,57.69A50.44,50.44,0,0,1,639,177.25c-23.92-3-46-19.81-52.9-43.24-5.45-19.16-.65-39.38,8.84-56.21a70.92,70.92,0,0,1,23-24.9c6.18-4.1,12.1-7.14,16.85-11.46,5-4.28,8.58-10.2,11.63-16a21.74,21.74,0,0,0,2.72-9.35c.1-3.35-.52-6.93-.6-10.46Z"/><path class="cls-4" d="M654.81,646.71c29-64.72,96.17-190.84,234-296.41,166.09-127.21,338-150.42,408.73-156-5.58,34.13-43.75,245.26-243.36,374.41C876.83,683.45,694.71,654.11,654.81,646.71Z"/><path class="cls-5" d="M1144.75,340.86A1287.07,1287.07,0,0,1,963.39,497.64a1247.14,1247.14,0,0,1-158.89,96c-8.66,4.44-17.32,8.65-25.74,12.87h-.24c-35.56,17.08-70,31.35-103,43.52"/><path class="cls-5" d="M1145.22,494.13l-181.83,3.51c.94-38.14,2.11-76.05,3-114.19"/><path class="cls-5" d="M911,633.84q-66-13.7-132.21-27.38c-3-.71-5.85-1.17-8.89-1.88-.71-34.4-1.64-68.56-2.34-103"/><path class="cls-4" d="M650.74,646.71c-29-64.72-96.16-190.84-234-296.41C250.64,223.09,78.72,199.88,8,194.29c5.58,34.13,43.75,245.26,243.37,374.41C428.72,683.45,610.85,654.11,650.74,646.71Z"/><path class="cls-5" d="M160.81,340.86A1287.5,1287.5,0,0,0,342.16,497.64a1247.29,1247.29,0,0,0,158.9,96c8.65,4.44,17.31,8.65,25.74,12.87H527c35.57,17.08,70,31.35,103,43.52"/><path class="cls-5" d="M160.34,494.13l181.82,3.51c-.93-38.14-2.1-76.05-3-114.19"/><path class="cls-5" d="M394.58,633.84q66-13.7,132.22-27.38c3-.71,5.85-1.17,8.89-1.88.7-34.4,1.64-68.56,2.34-103"/></g></g></svg>